<?xml version="1.0" encoding="UTF-8" standalone="no"?>
<svg
   xmlns:dc="http://purl.org/dc/elements/1.1/"
   xmlns:cc="http://creativecommons.org/ns#"
   xmlns:rdf="http://www.w3.org/1999/02/22-rdf-syntax-ns#"
   xmlns:svg="http://www.w3.org/2000/svg"
   xmlns="http://www.w3.org/2000/svg"
   xmlns:sodipodi="http://sodipodi.sourceforge.net/DTD/sodipodi-0.dtd"
   xmlns:inkscape="http://www.inkscape.org/namespaces/inkscape"
   version="1.1"
   id="svg2"
   xml:space="preserve"
   width="1333.3333"
   height="522.96002"
   viewBox="0 0 1333.3333 522.96002"
   sodipodi:docname="Logo_TJXC_BIL_PMS187_RGB.eps"><metadata
     id="metadata8"><rdf:RDF><cc:Work
         rdf:about=""><dc:format>image/svg+xml</dc:format><dc:type
           rdf:resource="http://purl.org/dc/dcmitype/StillImage" /></cc:Work></rdf:RDF></metadata><defs
     id="defs6" /><sodipodi:namedview
     pagecolor="#ffffff"
     bordercolor="#666666"
     borderopacity="1"
     objecttolerance="10"
     gridtolerance="10"
     guidetolerance="10"
     inkscape:pageopacity="0"
     inkscape:pageshadow="2"
     inkscape:window-width="640"
     inkscape:window-height="480"
     id="namedview4" /><g
     id="g10"
     inkscape:groupmode="layer"
     inkscape:label="ink_ext_XXXXXX"
     transform="matrix(1.3333333,0,0,-1.3333333,0,522.96)"><g
       id="g12"
       transform="scale(0.1)"><path
         d="M 2600.28,3119.99 H 1693.53 L 1687.48,67.8281 H 900.629 V 3113.88 L 0,3119.99 v 789.96 h 2600.28 v -789.96"
         style="fill:#a91a2d;fill-opacity:1;fill-rule:nonzero;stroke:none"
         id="path14" /><path
         d="m 4859.41,3246.01 461.07,657.73 h 845.24 L 5320.48,2526.82 6196.47,1159.04 H 5335.92 L 4856.41,1850.57 3663.8,73.9688 H 2812.37 L 4410.68,2523.72 3528.52,3903.74 h 872.94 l 457.95,-657.73"
         style="fill:#a91a2d;fill-opacity:1;fill-rule:nonzero;stroke:none"
         id="path16" /><path
         d="M 3451.73,1549.4 C 3390.27,999.191 3027.54,495.129 2532.67,252.281 2305.3,144.719 2056.33,73.9688 1779.69,77.1211 V 842.41 c 414.93,12.36 749.9,279.68 875.95,639.35 21.51,33.86 24.59,89.13 33.81,129.08 l 6.17,2311.4 h 759.18 l -3.07,-2372.84"
         style="fill:#a91a2d;fill-opacity:1;fill-rule:nonzero;stroke:none"
         id="path18" /><path
         d="m 6414.07,3748 c 21.25,0 54.44,-5.61 49.55,-51.58 -3.62,-34.69 -26.2,-41.07 -49.55,-41.07 h -86.31 V 3748 Z m -120.88,-238.37 h 34.57 v 115.33 h 88.41 c 55.91,0 40.33,-49.58 45.98,-81.35 l 5.62,-33.98 h 41.12 c -14.82,23.39 -9.96,29.01 -12.82,64.42 -4.19,46.63 -4.96,50.91 -32.45,68.57 26.07,19.78 36.74,32.52 35.31,67.27 -3.53,60.78 -43.78,68.47 -85.55,68.47 h -120.19 z m 306.89,127.36 c 0,-119.55 -97,-215.77 -215.7,-215.77 -119.51,-0.67 -215.66,96.22 -215.66,215.13 -0.76,119.44 96.15,216.34 215,216.34 119.36,0 216.36,-96.9 216.36,-215.7 z m 28.31,0 c 0,134.28 -109.64,243.94 -244.01,243.94 -135.06,0 -244.65,-109.66 -243.99,-243.94 0,-135.1 108.93,-244.01 243.99,-244.01 134.37,0.66 244.01,108.91 244.01,244.01"
         style="fill:#a91a2d;fill-opacity:1;fill-rule:evenodd;stroke:none"
         id="path20" /><path
         d="M 5713.44,41.2188 C 5668.94,19.3203 5597.49,0 5508.49,0 c -199.07,0 -319.68,139.109 -319.68,360.629 0,163.582 59.73,319.402 167.45,418.582 81.97,75.988 182.68,115.91 298.62,115.91 86.64,0 149.9,-24.461 170.98,-41.211 l -31.64,-86.289 c -29.25,19.328 -85.48,36.051 -155.72,36.051 -81.99,0 -165.12,-34.762 -226.04,-97.863 -73.76,-76 -120.61,-198.348 -120.61,-331 0,-154.559 64.41,-283.3481 240.05,-283.3481 59.73,0 125.32,12.8591 168.65,37.3591 l 12.89,-87.6012"
         style="fill:#a91a2d;fill-opacity:1;fill-rule:nonzero;stroke:none"
         id="path22" /><path
         d="m 6212.25,373.5 -31.64,251.16 c -3.5,45.07 -9.37,109.469 -12.87,159.692 h -3.52 c -21.07,-51.5 -40.98,-105.602 -64.4,-158.403 L 5982.71,373.5 Z m -265.84,-85 -125.29,-274.3203 h -101.89 l 407.51,868.0583 h 114.78 l 108.9,-868.0583 h -99.53 L 6219.27,288.5 h -272.86"
         style="fill:#a91a2d;fill-opacity:1;fill-rule:nonzero;stroke:none"
         id="path24" /><path
         d="m 6417.1,14.1797 149.91,868.0583 h 106.54 L 6853.89,390.25 c 35.16,-99.18 52.7,-167.43 69.09,-242.141 l 2.38,1.313 c 4.67,78.547 12.86,150.68 33.93,271.75 l 79.66,461.066 h 91.33 L 6980.39,14.1797 h -96.05 L 6703.99,504.879 c -37.45,106.891 -55.03,167.43 -72.6,249.851 l -3.48,-1.281 c -8.2,-81.14 -21.11,-167.429 -41.03,-285.918 L 6508.46,14.1797 h -91.36"
         style="fill:#a91a2d;fill-opacity:1;fill-rule:nonzero;stroke:none"
         id="path26" /><path
         d="m 7549.47,373.5 -31.63,251.16 c -3.52,45.07 -9.38,109.469 -12.87,159.692 h -3.52 c -21.11,-51.5 -40.98,-105.602 -64.42,-158.403 L 7319.91,373.5 Z m -265.86,-85 -125.26,-274.3203 h -101.91 l 407.51,868.0583 h 114.78 L 7687.65,14.1797 h -99.53 L 7556.47,288.5 h -272.86"
         style="fill:#a91a2d;fill-opacity:1;fill-rule:nonzero;stroke:none"
         id="path28" /><path
         d="m 7866.75,103.031 c 35.12,-5.1404 72.62,-6.4216 101.86,-6.4216 125.32,0 216.65,39.9216 282.21,114.6286 71.47,79.832 107.78,202.184 107.78,325.832 0,150.7 -67.95,262.739 -263.53,262.739 -36.26,0 -80.76,-2.579 -108.88,-9 z m 35.12,766.34 c 60.88,11.578 126.5,18.008 194.39,18.008 133.51,0 234.23,-39.918 291.59,-113.32 43.31,-47.649 74.95,-126.207 74.95,-233.11 0,-154.57 -57.37,-316.84 -158.09,-412.129 C 8213.37,45.1016 8098.59,7.73828 7946.37,7.73828 c -69.09,0 -140.51,3.87112 -190.87,11.58202 l 146.37,850.0507"
         style="fill:#a91a2d;fill-opacity:1;fill-rule:nonzero;stroke:none"
         id="path30" /><path
         d="m 8901.86,373.5 -31.65,251.16 c -3.47,45.07 -9.33,109.469 -12.86,159.692 h -3.52 c -21.06,-51.5 -40.98,-105.602 -64.37,-158.403 L 8672.34,373.5 Z m -265.82,-85 -125.31,-274.3203 h -101.86 l 407.51,868.0583 h 114.78 L 9040.03,14.1797 H 8940.5 L 8908.91,288.5 h -272.87"
         style="fill:#a91a2d;fill-opacity:1;fill-rule:nonzero;stroke:none"
         id="path32" /><path
         d="m 6135.61,3267.64 h 49.15 l 85.08,-226.91 85.48,226.91 h 49.17 v -270.01 h -34.01 v 224.63 h -0.76 l -84.34,-224.63 h -30.63 l -84.34,224.63 h -0.76 v -224.63 h -34.04 v 270.01"
         style="fill:#a91a2d;fill-opacity:1;fill-rule:nonzero;stroke:none"
         id="path34" /><path
         d="m 6500.12,3027.88 h 59.75 c 24.58,0 90.76,6.8 90.76,106.27 0,64.29 -23.82,103.24 -90,103.24 h -60.51 z m -35.92,239.76 h 92.67 c 83.19,0 129.69,-41.59 129.69,-128.57 0,-90.39 -39.68,-141.44 -129.69,-141.44 h -92.67 v 270.01"
         style="fill:#a91a2d;fill-opacity:1;fill-rule:nonzero;stroke:none"
         id="path36" /><path
         d="m 9602.92,14.4609 -3.57,202.5191 206.57,-30.25 c -7.13,10.692 -14.23,24.942 -21.38,35.61 -7.12,10.699 -3.54,32.039 14.25,48.082 17.82,16 201.21,167.379 201.21,167.379 -21.35,0 -62.32,16.008 -51.62,60.531 l 26.68,99.719 -64.08,-14.223 c -21.38,-5.359 -42.72,-7.137 -56.99,14.223 l -24.95,39.16 -80.11,-92.563 c -17.34,-19.136 -42.74,-21.398 -35.62,19.59 7.13,40.942 35.62,211.871 35.62,211.871 -19.55,-17.82 -35.62,-28.5 -56.99,-30.25 -21.36,-1.769 -28.46,0 -48.04,35.602 l -53.87,96.609 -53.44,-97.941 c -19.58,-35.629 -26.7,-37.399 -48.05,-35.629 -21.39,1.809 -37.42,12.48 -56.98,30.27 0,0 28.47,-170.93 35.59,-211.879 7.15,-40.969 -17.79,-38.282 -35.59,-19.582 l -80.11,92.582 -24.95,-39.161 c -14.26,-21.378 -35.64,-19.589 -56.98,-14.25 l -64.11,14.25 26.71,-99.73 c 10.69,-44.48 -30.28,-60.512 -51.63,-60.512 0,0 183.37,-151.398 201.21,-167.41 17.79,-16.058 21.37,-37.398 14.25,-48.098 -7.15,-10.64 -14.25,-24.921 -21.37,-35.589 l 206.51,30.257 -3.52,-201.1871 h 25.35"
         style="fill:#a91a2d;fill-opacity:1;fill-rule:nonzero;stroke:none"
         id="path38" /></g></g></svg>
