<?xml version="1.0" encoding="utf-8"?>
<svg viewBox="0 0 1333.3333 522.96002" xmlns="http://www.w3.org/2000/svg">
  <g id="g10" transform="matrix(1.333333, 0, 0, -1.333333, 0, 522.960038)">
    <g id="g12" transform="scale(0.1)">
      <path d="M 2600.28,3119.99 H 1693.53 L 1687.48,67.8281 H 900.629 V 3113.88 L 0,3119.99 v 789.96 h 2600.28 v -789.96" style="fill:#a91a2d;fill-opacity:1;fill-rule:nonzero;stroke:none" id="path14"/>
      <path d="m 4859.41,3246.01 461.07,657.73 h 845.24 L 5320.48,2526.82 6196.47,1159.04 H 5335.92 L 4856.41,1850.57 3663.8,73.9688 H 2812.37 L 4410.68,2523.72 3528.52,3903.74 h 872.94 l 457.95,-657.73" style="fill:#a91a2d;fill-opacity:1;fill-rule:nonzero;stroke:none" id="path16"/>
      <path d="M 3451.73,1549.4 C 3390.27,999.191 3027.54,495.129 2532.67,252.281 2305.3,144.719 2056.33,73.9688 1779.69,77.1211 V 842.41 c 414.93,12.36 749.9,279.68 875.95,639.35 21.51,33.86 24.59,89.13 33.81,129.08 l 6.17,2311.4 h 759.18 l -3.07,-2372.84" style="fill:#a91a2d;fill-opacity:1;fill-rule:nonzero;stroke:none" id="path18"/>
      <path d="m 6414.07,3748 c 21.25,0 54.44,-5.61 49.55,-51.58 -3.62,-34.69 -26.2,-41.07 -49.55,-41.07 h -86.31 V 3748 Z m -120.88,-238.37 h 34.57 v 115.33 h 88.41 c 55.91,0 40.33,-49.58 45.98,-81.35 l 5.62,-33.98 h 41.12 c -14.82,23.39 -9.96,29.01 -12.82,64.42 -4.19,46.63 -4.96,50.91 -32.45,68.57 26.07,19.78 36.74,32.52 35.31,67.27 -3.53,60.78 -43.78,68.47 -85.55,68.47 h -120.19 z m 306.89,127.36 c 0,-119.55 -97,-215.77 -215.7,-215.77 -119.51,-0.67 -215.66,96.22 -215.66,215.13 -0.76,119.44 96.15,216.34 215,216.34 119.36,0 216.36,-96.9 216.36,-215.7 z m 28.31,0 c 0,134.28 -109.64,243.94 -244.01,243.94 -135.06,0 -244.65,-109.66 -243.99,-243.94 0,-135.1 108.93,-244.01 243.99,-244.01 134.37,0.66 244.01,108.91 244.01,244.01" style="fill:#a91a2d;fill-opacity:1;fill-rule:evenodd;stroke:none" id="path20"/>
      <path d="m 6135.61,3267.64 h 49.15 l 85.08,-226.91 85.48,226.91 h 49.17 v -270.01 h -34.01 v 224.63 h -0.76 l -84.34,-224.63 h -30.63 l -84.34,224.63 h -0.76 v -224.63 h -34.04 v 270.01" style="fill:#a91a2d;fill-opacity:1;fill-rule:nonzero;stroke:none" id="path34"/>
      <path d="m 6500.12,3027.88 h 59.75 c 24.58,0 90.76,6.8 90.76,106.27 0,64.29 -23.82,103.24 -90,103.24 h -60.51 z m -35.92,239.76 h 92.67 c 83.19,0 129.69,-41.59 129.69,-128.57 0,-90.39 -39.68,-141.44 -129.69,-141.44 h -92.67 v 270.01" style="fill:#a91a2d;fill-opacity:1;fill-rule:nonzero;stroke:none" id="path36"/>
      <path d="M 5592.64 -323.411 L 5359.42 -323.411 L 5377.01 -393.971 L 5436.7 -405.491 L 5530.5 -781.691 L 5476.55 -793.211 L 5494.24 -864.141 L 5551.06 -864.141 L 5754.2 -864.141 C 5796.54 -864.141 5831.27 -856.714 5858.39 -841.861 C 5885.51 -827.001 5904.153 -806.451 5914.32 -780.211 C 5924.493 -753.964 5925.197 -723.264 5916.43 -688.111 C 5907.663 -652.951 5891.653 -622.248 5868.4 -596.001 C 5845.14 -569.761 5816.277 -549.338 5781.81 -534.731 C 5747.343 -520.118 5708.943 -512.811 5666.61 -512.811 L 5583.05 -512.811 L 5556.29 -405.491 L 5610.24 -393.971 L 5592.64 -323.411 Z M 5647.86 -772.781 L 5605.92 -604.541 L 5689.48 -604.541 C 5717.953 -604.541 5741.42 -612.281 5759.88 -627.761 C 5778.347 -643.234 5790.607 -663.101 5796.66 -687.361 C 5802.833 -712.121 5800.62 -732.548 5790.02 -748.641 C 5779.427 -764.734 5759.893 -772.781 5731.42 -772.781 L 5647.86 -772.781 ZM 6087.679 -323.411 L 5854.459 -323.411 L 5872.049 -393.971 L 5931.739 -405.491 L 6025.539 -781.691 L 5971.589 -793.211 L 5989.369 -864.511 L 6250.449 -864.511 C 6292.536 -864.511 6327.263 -857.828 6354.629 -844.461 C 6382.003 -831.088 6400.863 -812.148 6411.209 -787.641 C 6421.563 -763.128 6422.513 -733.911 6414.059 -699.991 C 6406.159 -668.298 6390.643 -639.331 6367.509 -613.091 C 6344.376 -586.844 6316.413 -566.044 6283.619 -550.691 C 6250.826 -535.344 6215.613 -527.671 6177.979 -527.671 L 6081.879 -528.041 L 6051.329 -405.491 L 6105.279 -393.971 L 6087.679 -323.411 Z M 6344.309 -323.411 L 6199.469 -323.411 L 6173.139 -545.501 L 6286.479 -577.061 L 6316.119 -405.491 L 6361.899 -393.971 L 6344.309 -323.411 Z M 6142.899 -772.781 L 6104.849 -620.141 L 6189.149 -620.141 C 6217.376 -620.141 6240.336 -626.331 6258.029 -638.711 C 6275.723 -651.091 6287.533 -669.164 6293.459 -692.931 C 6299.506 -717.198 6297.033 -736.571 6286.039 -751.051 C 6275.039 -765.538 6255.553 -772.781 6227.579 -772.781 L 6142.899 -772.781 ZM 6812.601 -323.411 L 6379.951 -323.411 L 6397.541 -393.971 L 6457.231 -405.491 L 6551.031 -781.691 L 6497.081 -793.211 L 6514.771 -864.141 L 6940.741 -864.141 L 6903.051 -712.991 L 6812.061 -712.991 L 6822.791 -772.411 L 6668.301 -772.411 L 6637.471 -648.741 L 6814.991 -648.741 L 6792.111 -557.011 L 6614.591 -557.011 L 6579.221 -415.141 L 6741.891 -415.141 L 6761.341 -476.791 L 6850.851 -476.791 L 6812.601 -323.411 ZM 7092.156 -315.611 C 7050.316 -315.611 7013.763 -319.944 6982.496 -328.611 C 6951.236 -337.278 6922.073 -352.874 6895.006 -375.401 L 6928.896 -511.331 L 7020.996 -511.331 L 7013.896 -436.681 C 7021.023 -427.521 7033.75 -419.971 7052.076 -414.031 C 7070.403 -408.084 7091.203 -405.111 7114.476 -405.111 C 7132.796 -405.111 7148.67 -407.464 7162.096 -412.171 C 7175.523 -416.878 7186.52 -423.748 7195.086 -432.781 C 7203.653 -441.821 7209.48 -452.531 7212.566 -464.911 C 7215.533 -476.791 7215.25 -487.311 7211.716 -496.471 C 7208.183 -505.631 7200.78 -514.174 7189.506 -522.101 C 7178.233 -530.021 7162.32 -537.944 7141.766 -545.871 C 7100.6 -559.484 7067.43 -573.904 7042.256 -589.131 C 7017.083 -604.358 6999.986 -622.431 6990.966 -643.351 C 6981.946 -664.278 6981.203 -689.841 6988.736 -720.041 C 6996.143 -749.754 7010.996 -775.814 7033.296 -798.221 C 7055.596 -820.628 7083.02 -838.268 7115.566 -851.141 C 7148.113 -864.014 7183.39 -870.701 7221.396 -871.201 C 7264.723 -872.188 7301.586 -867.604 7331.986 -857.451 C 7362.38 -847.304 7387.58 -832.698 7407.586 -813.631 L 7376.106 -687.361 L 7286.976 -687.361 L 7290.826 -760.901 C 7283.146 -765.848 7271.876 -770.304 7257.016 -774.271 C 7242.163 -778.231 7225.326 -780.211 7206.506 -780.211 C 7190.166 -780.211 7175.173 -777.921 7161.526 -773.341 C 7147.886 -768.761 7136.363 -762.014 7126.956 -753.101 C 7117.556 -744.188 7111.22 -733.168 7107.946 -720.041 C 7105.293 -709.394 7105.95 -699.864 7109.916 -691.451 C 7113.883 -683.031 7122.446 -674.921 7135.606 -667.121 C 7148.766 -659.321 7167.543 -650.718 7191.936 -641.311 C 7248.023 -623.978 7288.393 -601.694 7313.046 -574.461 C 7337.7 -547.228 7344.38 -510.958 7333.086 -465.651 C 7325.246 -434.204 7309.99 -407.278 7287.316 -384.871 C 7264.65 -362.464 7236.606 -345.321 7203.186 -333.441 C 7169.773 -321.554 7132.763 -315.611 7092.156 -315.611 ZM 7559.715 -315.611 C 7517.875 -315.611 7481.321 -319.944 7450.055 -328.611 C 7418.795 -337.278 7389.631 -352.874 7362.565 -375.401 L 7396.455 -511.331 L 7488.555 -511.331 L 7481.455 -436.681 C 7488.581 -427.521 7501.308 -419.971 7519.635 -414.031 C 7537.961 -408.084 7558.761 -405.111 7582.035 -405.111 C 7600.355 -405.111 7616.228 -407.464 7629.655 -412.171 C 7643.081 -416.878 7654.078 -423.748 7662.645 -432.781 C 7671.211 -441.821 7677.038 -452.531 7680.125 -464.911 C 7683.091 -476.791 7682.808 -487.311 7679.275 -496.471 C 7675.741 -505.631 7668.338 -514.174 7657.065 -522.101 C 7645.791 -530.021 7629.878 -537.944 7609.325 -545.871 C 7568.158 -559.484 7534.988 -573.904 7509.815 -589.131 C 7484.641 -604.358 7467.545 -622.431 7458.525 -643.351 C 7449.505 -664.278 7448.761 -689.841 7456.295 -720.041 C 7463.701 -749.754 7478.555 -775.814 7500.855 -798.221 C 7523.155 -820.628 7550.578 -838.268 7583.125 -851.141 C 7615.671 -864.014 7650.948 -870.701 7688.955 -871.201 C 7732.281 -872.188 7769.145 -867.604 7799.545 -857.451 C 7829.938 -847.304 7855.138 -832.698 7875.145 -813.631 L 7843.665 -687.361 L 7754.535 -687.361 L 7758.385 -760.901 C 7750.705 -765.848 7739.435 -770.304 7724.575 -774.271 C 7709.721 -778.231 7692.885 -780.211 7674.065 -780.211 C 7657.725 -780.211 7642.731 -777.921 7629.085 -773.341 C 7615.445 -768.761 7603.921 -762.014 7594.515 -753.101 C 7585.115 -744.188 7578.778 -733.168 7575.505 -720.041 C 7572.851 -709.394 7573.508 -699.864 7577.475 -691.451 C 7581.441 -683.031 7590.005 -674.921 7603.165 -667.121 C 7616.325 -659.321 7635.101 -650.718 7659.495 -641.311 C 7715.581 -623.978 7755.951 -601.694 7780.605 -574.461 C 7805.258 -547.228 7811.938 -510.958 7800.645 -465.651 C 7792.805 -434.204 7777.548 -407.278 7754.875 -384.871 C 7732.208 -362.464 7704.165 -345.321 7670.745 -333.441 C 7637.331 -321.554 7600.321 -315.611 7559.715 -315.611 Z" transform="matrix(1.731476068496704, 0, 0, -1.4298160076141357, -3812.0087890625, -287.16168212890625)" style="fill: rgb(169, 26, 45); white-space: pre;"/>
    </g>
  </g>
</svg>